<?xml version="1.0" encoding="UTF-8" standalone="no"?>
<svg width="100px" height="83px" viewBox="0 0 100 83" version="1.1" xmlns="http://www.w3.org/2000/svg" xmlns:xlink="http://www.w3.org/1999/xlink" xmlns:sketch="http://www.bohemiancoding.com/sketch/ns">
    <title>Slice 1</title>
    <description>Created with Sketch (http://www.bohemiancoding.com/sketch)</description>
    <defs></defs>
    <g id="Page 1" stroke="none" stroke-width="1" fill="none" fill-rule="evenodd" sketch:type="MSPage">
        <g id="Layer_1" sketch:type="MSLayerGroup" fill="#FB4B8B">
            <path d="M99.981,2.312 C99.884,1.021 98.816,0 97.5,0 L2.5,0 C1.184,0 0.116,1.021 0.019,2.312 L0,66.5 C0,67.881 1.119,69 2.5,69 L97.5,69 C98.881,69 100,67.881 100,66.5 L99.981,2.312 L99.981,2.312 Z M96,57 L4,57 L4,4 L96,4 L96,57 L96,57 Z M96,57" id="Shape" sketch:type="MSShapeGroup"></path>
            <path d="M66,81 C62,80 61,77 61,73 L61,72 L50,72 L39,72 L39,73 C39,77 38,80 34,81 C33.03,81.242 33,83 34,83 L50,83 L66,83 C67,83 66.97,81.242 66,81 L66,81 Z M66,81" id="Shape" sketch:type="MSShapeGroup"></path>
        </g>
    </g>
</svg>