<?xml version="1.0" encoding="UTF-8" standalone="no"?>
<svg width="48px" height="96px" viewBox="0 0 48 96" version="1.1" xmlns="http://www.w3.org/2000/svg" xmlns:xlink="http://www.w3.org/1999/xlink" xmlns:sketch="http://www.bohemiancoding.com/sketch/ns">
    <title>Slice 2</title>
    <description>Created with Sketch (http://www.bohemiancoding.com/sketch)</description>
    <defs></defs>
    <g id="Page 1" stroke="none" stroke-width="1" fill="none" fill-rule="evenodd" sketch:type="MSPage">
        <g id="Layer_1" sketch:type="MSLayerGroup" transform="translate(1.000000, 1.000000)" fill="#FB4B8B">
            <path d="M14.147,85.239 C14.486,86.441 14.829,87.588 15.168,88.678 L30.83,88.678 C31.17,87.587 31.512,86.441 31.851,85.239 L14.147,85.239 L14.147,85.239 Z M14.147,85.239" id="Shape" sketch:type="MSShapeGroup"></path>
            <path d="M37.127,63.783 C40.043,48.561 40.98,31.418 33.751,16.146 L12.247,16.146 C5.02,31.417 5.955,48.561 8.872,63.783 C7.323,65.925 0.38,73.593 0.38,73.593 L1.65,93.798 L5.796,93.798 L9.002,80.684 L12.492,79.177 C12.887,80.65 13.274,82.069 13.656,83.454 L32.343,83.454 C32.725,82.068 33.114,80.649 33.508,79.177 L36.997,80.684 L40.203,93.798 L44.349,93.798 L45.62,73.593 C45.62,73.593 38.675,65.925 37.127,63.783 L37.127,63.783 Z M23,28.15 C25.494,28.198 27.5,30.188 27.5,32.649 C27.5,35.107 25.494,37.102 23,37.15 C20.505,37.102 18.5,35.107 18.5,32.649 C18.5,30.188 20.505,28.198 23,28.15 L23,28.15 Z M23,28.15" id="Shape" sketch:type="MSShapeGroup"></path>
            <g id="_x3C_Path_x3E_" transform="translate(13.000000, 0.000000)" sketch:type="MSShapeGroup">
                <path d="M9.975,14.359 L10.026,14.359 L19.838,14.359 C17.35,9.687 10.216,0.202 9.976,0.202 C9.736,0.202 2.652,9.687 0.164,14.359 L9.975,14.359 L9.975,14.359 Z M9.975,14.359" id="Shape"></path>
            </g>
        </g>
    </g>
</svg>